<svg width="210" height="47" viewBox="0 0 210 47" fill="none" xmlns="http://www.w3.org/2000/svg">
<path fill-rule="evenodd" clip-rule="evenodd" d="M181.117 1.35047L174.649 0.12149L161.858 45.0199L168.325 46.2489L181.117 1.35047ZM22.4111 4.86667L0 23.1695L22.4111 41.4723L26.5613 38.0829L8.30039 23.1695L26.5613 8.25608L22.4111 4.86667ZM31.6866 28.3357L29.3302 29.1155V31.3041H38.3091V29.1155L35.8911 28.3357V19.0909L36.4147 20.4368L40.0494 26.5371L43.453 26.4113L47.0261 20.3613L47.8732 18.6507V28.3357L45.409 29.1155V31.3041H54.8037V29.1155L52.4473 28.3357V16.2358L54.7113 15.4559V13.1416L47.1493 13.2674L42.1902 21.7197L37.462 13.1416L29.3302 13.2674V15.4559L31.6866 16.2358V28.3357ZM59.5472 28.3357L57.1754 29.1155V31.3041H66.8011V29.1155L64.4294 28.3357V16.2358L66.8011 15.4559V13.1416L57.1754 13.2674V15.4559L59.5472 16.2358V28.3357ZM71.5139 28.3357L69.1575 29.1155V31.3041H78.3058V29.1155L75.8416 28.3357V19.6318L84.2968 31.3041H89.564V16.2358L91.9204 15.4559V13.1416L82.9415 13.2674V15.4559L85.2363 16.2358V25.0403L76.7195 13.1416L69.1575 13.2674V15.4559L71.5139 16.2358V28.3357ZM96.3405 28.3357L93.9841 29.1155V31.3041H103.764V29.1155L101.238 28.3357V23.4429H109.493V28.3357L106.967 29.1155V31.3041H116.747V29.1155L114.391 28.3357V16.2358L116.747 15.4559V13.1416L106.967 13.2674V15.4559L109.493 16.2358V20.3613H101.238V16.2358L103.764 15.4559V13.1416L93.9841 13.2674V15.4559L96.3405 16.2358V28.3357ZM131.255 31.3041H141.296V29.1155L139.079 28.3986L132.302 13.1416L127.251 13.2171L120.32 28.3986L118.01 29.1155V31.3041H127.543V29.1155L125.079 28.3986L125.864 26.5371H132.872L133.627 28.4237L131.255 29.1155V31.3041ZM126.973 23.7825L129.468 17.6822L131.825 23.7825H126.973ZM146.964 16.2358H153.586L142.39 28.5998V31.3041H159.809V25.6315H156.805L156.112 28.2099H148.92L159.901 16.0597V13.1416H143.191V18.5501H146.179L146.964 16.2358ZM210 23.1695L187.589 41.4723L183.439 38.0829L201.7 23.1695L183.439 8.25608L187.589 4.86667L210 23.1695Z" fill="#915EFF"/>
</svg>
